<?xml version="1.0" encoding="utf-8"?>
<!-- Generator: Adobe Illustrator 23.0.3, SVG Export Plug-In . SVG Version: 6.00 Build 0)  -->
<svg version="1.1" id="Laag_1" xmlns="http://www.w3.org/2000/svg" xmlns:xlink="http://www.w3.org/1999/xlink" x="0px" y="0px"
	 viewBox="0 0 698.75 121.37" style="enable-background:new 0 0 698.75 121.37;" xml:space="preserve">
<style type="text/css">
	.st0{clip-path:url(#SVGID_2_);}
</style>
<g>
	<defs>
		<rect id="SVGID_1_" x="-6.91" y="-8.66" width="740.98" height="173.99"/>
	</defs>
	<clipPath id="SVGID_2_">
		<use xlink:href="#SVGID_1_"  style="overflow:visible;"/>
	</clipPath>
	<g class="st0">
		<path d="M3.34,87.9h-3.38V39.38h26.58v3.12H3.34v20.57h21.9v3.15H3.34V87.9z"/>
		<path d="M63.3,87.9V39.38h3.38v45.33h23.13v3.19H63.3z"/>
		<path d="M163,39.38v31.39c0,5.58-1.62,9.93-4.85,13.07c-3.23,3.14-7.73,4.71-13.51,4.71c-5.62,0-10.01-1.58-13.16-4.73
			c-3.15-3.15-4.73-7.55-4.73-13.19V39.38h3.42v31.39c0,4.67,1.29,8.3,3.88,10.9c2.59,2.6,6.25,3.9,10.98,3.9
			c4.62,0,8.21-1.28,10.75-3.83c2.54-2.55,3.82-6.1,3.82-10.63V39.38H163z"/>
		<path d="M205.37,87.9V39.38h3.38V87.9H205.37z"/>
	</g>
	<g class="st0">
		<path d="M432.34,88.51h-26.51V39.99h26.51v3.12h-23.13v18.35h21.84v3.12h-21.84v20.81h23.13V88.51z"/>
		<path d="M499.33,76c0,4.05-1.49,7.26-4.46,9.62s-6.93,3.55-11.86,3.55c-5.93,0-10.48-0.65-13.64-1.96v-3.38
			c3.5,1.48,7.95,2.22,13.37,2.22c3.98,0,7.14-0.91,9.47-2.74s3.5-4.22,3.5-7.18c0-1.84-0.39-3.36-1.16-4.56
			c-0.78-1.21-2.04-2.31-3.78-3.3c-1.75-1-4.31-2.07-7.7-3.22c-4.96-1.7-8.38-3.55-10.27-5.53c-1.89-1.98-2.84-4.62-2.84-7.91
			c0-3.63,1.42-6.59,4.26-8.88s6.5-3.43,10.97-3.43c4.56,0,8.84,0.86,12.84,2.59l-1.23,2.92c-4.03-1.68-7.88-2.52-11.55-2.52
			c-3.58,0-6.44,0.83-8.56,2.49s-3.19,3.92-3.19,6.77c0,1.79,0.33,3.26,0.98,4.41c0.65,1.15,1.72,2.19,3.2,3.1
			c1.48,0.92,4.03,2.02,7.63,3.3c3.78,1.31,6.62,2.57,8.53,3.8c1.9,1.23,3.29,2.62,4.17,4.18C498.89,71.9,499.33,73.79,499.33,76z"
			/>
		<path d="M538.81,88.51V39.99h3.38v48.52H538.81z"/>
		<path d="M604.24,64.05h17.89v22.13c-4.69,1.99-9.97,2.99-15.83,2.99c-7.65,0-13.52-2.16-17.6-6.49
			c-4.08-4.32-6.12-10.45-6.12-18.37c0-4.93,1.01-9.31,3.04-13.12c2.02-3.82,4.92-6.76,8.69-8.84c3.77-2.08,8.1-3.12,12.99-3.12
			c5.29,0,10.03,0.97,14.24,2.92l-1.36,3.05c-4.2-1.95-8.56-2.92-13.07-2.92c-6.39,0-11.47,1.97-15.22,5.92
			c-3.75,3.95-5.62,9.27-5.62,15.98c0,7.3,1.78,12.79,5.34,16.48c3.56,3.68,8.79,5.53,15.7,5.53c4.47,0,8.26-0.63,11.38-1.89V67.24
			h-14.44V64.05z"/>
		<path d="M698.73,88.51h-3.42l-28.74-43.07h-0.27c0.27,5.13,0.4,9,0.4,11.61v31.46h-3.25V39.99h3.38L695.55,83h0.2
			c-0.2-3.98-0.3-7.76-0.3-11.35V39.99h3.29V88.51z"/>
	</g>
	<g class="st0">
		<path d="M338.11,59.54c0,20.35-5.34,35.74-16.01,46.17c-10.67,10.43-26.35,15.64-47.04,15.64h-29.04V0.06h32.77
			c19.36,0,34.08,5.06,44.18,15.18C333.06,25.36,338.11,40.13,338.11,59.54z M328.9,59.87c0-17.37-4.41-30.43-13.23-39.2
			c-8.82-8.77-21.78-13.15-38.87-13.15h-22.32v106.36h20.08C310.78,113.88,328.9,95.88,328.9,59.87z"/>
	</g>
	<g class="st0">
		<path d="M370.22,59.54c0,20.35-5.34,35.74-16.01,46.17c-10.67,10.43-26.35,15.64-47.04,15.64h-29.04V0.06h32.77
			c19.36,0,34.08,5.06,44.18,15.18C365.17,25.36,370.22,40.13,370.22,59.54z M361.01,59.87c0-17.37-4.41-30.43-13.23-39.2
			C338.96,11.91,326,7.52,308.91,7.52h-22.32v106.36h20.08C342.9,113.88,361.01,95.88,361.01,59.87z"/>
	</g>
</g>
</svg>
