<?xml version="1.0" encoding="utf-8"?>
<!-- Generator: Adobe Illustrator 23.0.4, SVG Export Plug-In . SVG Version: 6.00 Build 0)  -->
<svg version="1.1" id="Laag_1" xmlns="http://www.w3.org/2000/svg" xmlns:xlink="http://www.w3.org/1999/xlink" x="0px" y="0px"
	 viewBox="0 0 126 121.4" style="enable-background:new 0 0 126 121.4;" xml:space="preserve">
<style type="text/css">
	.st0{clip-path:url(#SVGID_6_);}
</style>
<g>
	<g>
		<defs>
			<rect id="SVGID_1_" x="-252.9" y="-8.7" width="741" height="174"/>
		</defs>
		<clipPath id="SVGID_2_">
			<use xlink:href="#SVGID_1_"  style="overflow:visible;"/>
		</clipPath>
	</g>
	<g>
		<defs>
			<rect id="SVGID_3_" x="-252.9" y="-8.7" width="741" height="174"/>
		</defs>
		<clipPath id="SVGID_4_">
			<use xlink:href="#SVGID_3_"  style="overflow:visible;"/>
		</clipPath>
	</g>
	<g>
		<defs>
			<rect id="SVGID_5_" x="-252.9" y="-8.7" width="741" height="174"/>
		</defs>
		<clipPath id="SVGID_6_">
			<use xlink:href="#SVGID_5_"  style="overflow:visible;"/>
		</clipPath>
		<g class="st0">
			<path d="M92.1,59.5c0,20.3-5.3,35.7-16,46.2s-26.4,15.6-47,15.6H0V0.1h32.8c19.4,0,34.1,5.1,44.2,15.2
				C87,25.4,92.1,40.1,92.1,59.5z M82.9,59.9c0-17.4-4.4-30.4-13.2-39.2S47.9,7.5,30.8,7.5H8.5v106.4h20.1
				C64.8,113.9,82.9,95.9,82.9,59.9z"/>
		</g>
	</g>
	<g>
		<g>
			<path d="M124.2,59.5c0,20.3-5.3,35.7-16,46.2s-26.4,15.6-47,15.6h-29V0.1h32.8c19.4,0,34.1,5.1,44.2,15.2
				C119.2,25.4,124.2,40.1,124.2,59.5z M115,59.9c0-17.4-4.4-30.4-13.2-39.2C92.9,11.9,80,7.5,62.9,7.5H40.6v106.4h20.1
				C96.9,113.9,115,95.9,115,59.9z"/>
		</g>
	</g>
</g>
</svg>
