<?xml version="1.0" encoding="UTF-8"?>
<svg width="1095px" height="880px" viewBox="0 0 1095 880" version="1.1" xmlns="http://www.w3.org/2000/svg" xmlns:xlink="http://www.w3.org/1999/xlink">
    <!-- Generator: Sketch 57.1 (83088) - https://sketch.com -->
    <title>Stroke 1</title>
    <desc>Created with Sketch.</desc>
    <defs>
        <linearGradient x1="77.7903429%" y1="55.4676917%" x2="96.5438499%" y2="43.0525204%" id="linearGradient-1">
            <stop stop-color="#002C42" offset="0%"></stop>
            <stop stop-color="#F36B7A" offset="100%"></stop>
        </linearGradient>
    </defs>
    <g id="Design-" stroke="none" stroke-width="1" fill="none" fill-rule="evenodd">
        <path d="M8.28097524,470.450329 C8.28097524,470.450329 -41.0931526,477.262176 -49.3202521,392.10871 C-57.5502343,306.958824 -32.8631704,242.244481 -32.8631704,242.244481 C-32.8631704,242.244481 -19.1503769,170.714711 41.1951387,102.592654 C101.543537,34.4741766 230.461668,317.178385 230.461668,317.178385 C230.461668,317.178385 307.264265,538.572385 436.182396,378.485015 C565.103409,218.401224 800.996895,208.181663 800.996895,208.181663 C800.996895,208.181663 1072.54883,177.526558 1047.86465,337.613929 C1023.17471,497.697719 1102.72159,640.753681 1102.72159,640.753681 C1102.72159,640.753681 1198.72844,776.997794 924.429332,800.837472 C650.133106,824.680728 702.24864,473.854463 702.24864,473.854463 C702.24864,473.854463 741.533472,300.146976 533.999554,524.94869 C326.462752,749.746824 153.65907,770.182367 153.65907,770.182367 C153.65907,770.182367 211.260298,463.638481 8.28097524,470.450329 Z" id="Stroke-1" stroke="#0D2430" fill="url(#linearGradient-1)" transform="translate(534.000000, 447.000000) scale(-1, 1) rotate(12.000000) translate(-534.000000, -447.000000) "></path>
    </g>
</svg>